<svg xmlns="http://www.w3.org/2000/svg" viewBox="0 0 81.08 64.85"><defs><style>.cls-1{fill:#d8d8d8;}</style></defs><g id="レイヤー_2" data-name="レイヤー 2"><g id="レイヤー_1-2" data-name="レイヤー 1"><path class="cls-1" d="M35.33,64.79l-7.72-2.24a1.52,1.52,0,0,1-1-1.89L43.86,1.1a1.52,1.52,0,0,1,1.89-1L53.47,2.3a1.53,1.53,0,0,1,1,1.89L37.22,63.75A1.52,1.52,0,0,1,35.33,64.79ZM20.89,50.58,26.4,44.7a1.52,1.52,0,0,0-.1-2.18L14.82,32.42,26.3,22.33a1.5,1.5,0,0,0,.1-2.18l-5.51-5.88a1.52,1.52,0,0,0-2.15-.06L.48,31.31a1.52,1.52,0,0,0,0,2.22L18.74,50.64a1.51,1.51,0,0,0,2.15-.06Zm41.45.07L80.59,33.54a1.51,1.51,0,0,0,0-2.22L62.34,14.2a1.53,1.53,0,0,0-2.15.06l-5.51,5.88a1.51,1.51,0,0,0,.1,2.18l11.47,10.1L54.78,42.52a1.5,1.5,0,0,0-.1,2.18l5.51,5.88a1.52,1.52,0,0,0,2.15.07Z"/></g></g></svg>