<svg xmlns="http://www.w3.org/2000/svg" viewBox="0 0 371.6 512"><defs><style>.cls-1{fill:#fff;}</style></defs><g id="レイヤー_2" data-name="レイヤー 2"><g id="レイヤー_1-2" data-name="レイヤー 1"><path class="cls-1" d="M353.58,397.84C331.09,371.9,336,198.51,324.17,121.08c-.65-4.25-1.45-8.31-2.32-12.27,50.84-19.76,37.25-76.37,14.5-90.44-27.54-17-45.69-3.66-55.56,16.13C250,6.9,210.73,0,185.8,0s-64.21,6.9-95,34.5C81,14.72,62.79,1.32,35.23,18.37,12.51,32.44-1.09,89.05,49.76,108.81c-.88,4-1.69,8-2.34,12.27C35.62,198.51,40.51,371.9,18,397.84s-37.62,60.54,41.52,86.48S158.13,512,185.8,512s47.12-1.73,126.26-27.68S376.07,423.78,353.58,397.84Zm-221-293.37a12.71,12.71,0,1,1,12.7-12.71A12.71,12.71,0,0,1,132.59,104.47ZM218.23,168a22.82,22.82,0,0,1-3,.2c-7.1,0-14.52-2.91-20.44-5.62-3.57-1.67-6.39-3.25-8.19-4.31-1.8,1.06-4.62,2.64-8.19,4.31-5.9,2.71-13.32,5.58-20.42,5.62a23,23,0,0,1-3-.2,3.78,3.78,0,0,1,1-7.49,15.67,15.67,0,0,0,2,.14c4.32,0,10.17-1.8,15.13-4a93.73,93.73,0,0,0,9.7-4.92V140.16c-8.59-1.1-15.16-6.83-19.7-13.61-5-7.57,3.79-15.13,22.69-15.13s27.72,7.56,22.68,15.13c-4.24,6.36-10.29,11.78-18.12,13.35v11.87c.32.17.51.31.88.5,1.67,1,4,2.23,6.74,3.5,5.39,2.54,12.28,5,17.24,4.92a15.93,15.93,0,0,0,2-.14,3.78,3.78,0,0,1,1,7.49ZM239,104.47a12.71,12.71,0,1,1,12.71-12.71A12.72,12.72,0,0,1,239,104.47Z"/></g></g></svg>