<svg xmlns="http://www.w3.org/2000/svg" viewBox="0 0 207.24 40.8"><defs><style>.cls-1{fill:#1e1e1e;}</style></defs><g id="レイヤー_2" data-name="レイヤー 2"><g id="レイヤー_1-2" data-name="レイヤー 1"><path class="cls-1" d="M4.38,40H0L5,14c1.8-9.3,8-14,15.48-14,5.4,0,9.3,2.58,10.44,7.26h.12A14,14,0,0,1,43.68,0C50,0,54.9,3.54,54.9,10.5A18.53,18.53,0,0,1,54.54,14l-5,26H45.12l5-26a16.79,16.79,0,0,0,.3-2.88c0-4.8-2.94-7.2-7.32-7.2C37.86,3.9,33.36,6.78,32,14l-5,26H22.56l5-26a16.09,16.09,0,0,0,.3-2.76C27.9,6.48,25,3.9,20.58,3.9,15.42,3.9,10.74,7.26,9.42,14Z"/><path class="cls-1" d="M76.62,40,84.24.78h4.38L81,40Z"/><path class="cls-1" d="M122.28,40l3.36-17.1L113.76.78h5l9.42,18.36h.12L144.9.78h5.4L130,22.74,126.66,40Z"/><path class="cls-1" d="M203,.78h4.26L202.56,24.6c-2,9.9-8.52,16.2-19,16.2-9.12,0-14.16-4.68-14.16-12.3a18.41,18.41,0,0,1,.42-3.9L174.48.78h4.38L174.24,24.6a18.53,18.53,0,0,0-.36,3.48c0,5.52,3.24,8.82,9.9,8.82,7.92,0,13-4.74,14.52-12.3Z"/></g></g></svg>