<svg xmlns="http://www.w3.org/2000/svg" viewBox="0 0 90.19 70.11"><defs><style>.cls-1{fill:#d8d8d8;}</style></defs><g id="レイヤー_2" data-name="レイヤー 2"><g id="レイヤー_1-2" data-name="レイヤー 1"><path class="cls-1" d="M58.75,5.56l-.19.17h0l0,0,5.88,5.88h0l0,0c3.57-3.57,11.79-6,19.82,2.07l5.92-5.92C79.35-3,66-1.44,58.75,5.56Z"/><path class="cls-1" d="M27.2,42.91a71.31,71.31,0,0,1-14-19.59c-.43-.91-.83-1.82-1.2-2.74l0,0s0,0,0-.05L7.75,24.76a26.58,26.58,0,0,0,37.6,37.59l3-3,1.18-1.15h0l0,0A69.93,69.93,0,0,1,27.2,42.91Z"/><path class="cls-1" d="M51.25,6A17.53,17.53,0,0,0,26.54,6l-11.8,11.8A66.12,66.12,0,0,0,29.79,40.31,66.35,66.35,0,0,0,52.33,55.37l11.81-11.8a17.53,17.53,0,0,0,0-24.71Zm.58,18.79-6.48,6.48a4.58,4.58,0,0,1-6.48-6.48l6.48-6.49a4.59,4.59,0,1,1,6.48,6.49Z"/></g></g></svg>