<svg xmlns="http://www.w3.org/2000/svg" viewBox="0 0 64.84 26.16"><defs><style>.cls-1{fill:#2e9bbc;}</style></defs><g id="レイヤー_2" data-name="レイヤー 2"><g id="レイヤー_1-2" data-name="レイヤー 1"><path class="cls-1" d="M0,9.83C0,4,3.48,0,7.38,0,9.67,0,11,1.56,11,3c0,.94-.44,1.41-1,1.41a.88.88,0,0,1-1-.86c0-.5.15-.81.15-1.15,0-.52-.8-1.19-1.71-1.19-3.1,0-5.77,3.46-5.77,8.73,0,4.81,3.25,6.45,5.77,6.45s3.74-1.14,4.24-1.82c.18-.26.31-.44.52-.44a.62.62,0,0,1,.52.52,1,1,0,0,1-.26.6,6,6,0,0,1-5.23,2.44C4.5,17.73,0,15.83,0,9.83Z"/><path class="cls-1" d="M18.64,16.51a3.26,3.26,0,0,1-2.44,1.15,3.35,3.35,0,0,1-3.41-3.59,5.1,5.1,0,0,1,1.41-3.72,2.61,2.61,0,0,1,2.54-1.77c2.14,0,3.28,2,3.28,4.29a5.83,5.83,0,0,1-.68,2.65h.32a1.8,1.8,0,0,0,1.58-.91c.18-.26.31-.44.52-.44a.6.6,0,0,1,.52.52,1,1,0,0,1-.26.6,2.86,2.86,0,0,1-2.6,1.27A6.81,6.81,0,0,1,18.64,16.51Zm-1.35-.42A5.63,5.63,0,0,1,14.35,13a5.28,5.28,0,0,0-.13,1.19,2,2,0,0,0,3.07,1.95Zm.78-.88A4.5,4.5,0,0,0,18.62,13c0-2-.79-3.27-1.85-3.27a1.44,1.44,0,0,0-1.43,1.61A4.38,4.38,0,0,0,18.07,15.21Z"/><path class="cls-1" d="M32.86,3.46c0,1.74-1.11,5.41-2.7,8.63.29,2.11.88,3.82,2.05,3.82,1,0,1.41-.62,1.9-1.3.18-.26.31-.44.52-.44a.6.6,0,0,1,.52.52,1,1,0,0,1-.26.6A3.25,3.25,0,0,1,32,17.08c-1.58,0-2.68-1.4-3.15-2.73-1.3,2.06-2.75,3.54-4.16,3.54s-2.36-1-2.36-2.78c0-3.59,2.18-6.4,4.47-6.4a2.63,2.63,0,0,1,1.69.57s-.08-1.14-.08-2.52c0-2.91.84-5.56,2.81-5.56C32.24,1.2,32.86,2.16,32.86,3.46ZM28.6,12.53c-.13-.75-.6-.88-.6-1.35a1.77,1.77,0,0,1,.18-.83s-.1-.5-.88-.5c-2,0-3.3,2.55-3.3,5.26,0,1.11.52,1.56,1,1.56C26.08,16.67,27.4,14.85,28.6,12.53Zm1.32-3a20.42,20.42,0,0,0,1.67-5.9c0-.73-.18-1-.55-1-.59,0-1.17,1.58-1.17,4C29.87,7.51,29.87,8.53,29.92,9.57Z"/><path class="cls-1" d="M35.31,13.73c0-2.68.6-5.15,1.3-5.15a1,1,0,0,1,1,1.07c0,.62-.78,1.61-.78,3.74s.75,3,1.54,3,1.89-1.14,2.39-1.82c.18-.26.31-.44.52-.44a.62.62,0,0,1,.52.52,1,1,0,0,1-.26.6c-.65.91-1.88,2.52-3.2,2.52C36.58,17.81,35.31,16.41,35.31,13.73ZM38.79,5a1.43,1.43,0,0,1-1.43,1.32,1.05,1.05,0,0,1-1.07-1,1.33,1.33,0,0,1,1.2-1.48A1.2,1.2,0,0,1,38.79,5Z"/><path class="cls-1" d="M48.05,15.34c0-1.69.7-3.59.7-4.39,0-.39-.13-.52-.42-.52-1,0-3.72,3.74-4.31,5.3-.47,1.22-.68,1.72-1.25,1.72a.8.8,0,0,1-.86-.91c0-.55.34-5.67.34-6.58s.08-1.33.65-1.33,1,.58,1,1.59-.08,3.3-.08,3.35c.13-.23,2.76-4.76,5.2-4.76a1.44,1.44,0,0,1,1.48,1.46c0,1.61-.91,3.59-.91,5,0,.89.37,1.17,1.07,1.17.91,0,1.87-1.19,2.36-1.87.19-.26.32-.44.52-.44a.6.6,0,0,1,.52.52.93.93,0,0,1-.26.6c-.65.91-2,2.5-3.48,2.5A2.3,2.3,0,0,1,48.05,15.34Z"/><path class="cls-1" d="M61.36,18.46c-.26,4.76-2.47,7.7-4.79,7.7-1.63,0-2.6-.91-2.6-2.08,0-2,3.57-4.19,6-6,0-4-.19-3.85-.19-3.85s-2,3.31-4,3.31A1.84,1.84,0,0,1,54,15.5c0-3.93,3.06-7,5.12-7a2.27,2.27,0,0,1,1.9.83s.46-.6.85-.6a.8.8,0,0,1,.73.73c0,.49-1.27,1.59-1.27,2.7,0,.55,0,2.63,0,4.89a17.1,17.1,0,0,0,2.42-2.47c.18-.26.31-.44.52-.44a.6.6,0,0,1,.52.52,1,1,0,0,1-.26.6A16.61,16.61,0,0,1,61.36,18.46ZM60,19.5C57.87,21,55.4,22.72,55.4,24c0,.6.5.94,1.23.94C58.13,24.94,59.64,23,60,19.5Zm-4.29-4.32c0,.53.16,1.07.55,1.07,1.17,0,3.82-3.87,3.82-4.91,0-.39-.34-.65-.34-1.25,0-.26,0-.44-.33-.44C57.82,9.65,55.66,12.64,55.66,15.18Z"/></g></g></svg>