<svg xmlns="http://www.w3.org/2000/svg" viewBox="0 0 69.31 25.9"><defs><style>.cls-1{fill:#2e9bbc;}</style></defs><g id="レイヤー_2" data-name="レイヤー 2"><g id="レイヤー_1-2" data-name="レイヤー 1"><path class="cls-1" d="M10.32,16a4.35,4.35,0,0,1-3.4,1.43c-1.07,0-2.19-.62-2.19-1.71a2.07,2.07,0,0,1,2.13-1.9,7,7,0,0,1,2.79.62A5,5,0,0,0,10,12.43c0-1,0-3.82,0-5.72s1.33-3.3,2.63-3.3c.83,0,1.14.44,1.14.91a.77.77,0,0,1-.7.83c-.39,0-.6-.18-.86-.18s-.73.65-.73,1.89,0,3.9,0,5.33A6.27,6.27,0,0,1,11,15.08a7.09,7.09,0,0,0,3.17.91c2.1,0,4.21-2,4.21-6.94S14.82,1.2,10.24,1.2c-4.18,0-8.68,2.36-8.68,6.13C1.56,9.93,2.91,11,4.47,11,6.53,11,6.14,9.44,7.2,9.44c.5,0,.73.39.73,1s-1,1.79-3.38,1.79A4.26,4.26,0,0,1,0,7.62C0,2.34,5.46,0,10.27,0,15.71,0,20,3.09,20,9.1s-3.22,8.11-6.08,8.11A8.18,8.18,0,0,1,10.32,16Zm-4-.34c0,.34.37.52.81.52A2.64,2.64,0,0,0,9,15.42,4.84,4.84,0,0,0,7.2,15C6.66,15,6.29,15.37,6.29,15.7Z"/><path class="cls-1" d="M21.89,13.65c0-2.91,2-5.41,3.64-5.41,1.2,0,1.64.57,1.64,1.59,0,2.16-2.29,4.34-3.28,5,.16.88.84,1.43,2.08,1.43A4,4,0,0,0,29,14.35c.18-.26.31-.44.52-.44a.62.62,0,0,1,.52.52,1,1,0,0,1-.26.6,5,5,0,0,1-4.09,2.39A3.56,3.56,0,0,1,21.89,13.65Zm3.88-3.77c0-.31-.13-.44-.37-.44-.6,0-1.77,2.13-1.77,4A4.85,4.85,0,0,0,25.77,9.88Z"/><path class="cls-1" d="M32.37,10.79A2.66,2.66,0,0,1,31.15,8.5a2.06,2.06,0,0,1,2-2.16,1.7,1.7,0,0,1,1.71,1.77,2.59,2.59,0,0,1-.39,1.28l-.44.8c1.33.86,3,1.9,3,4.11a4.17,4.17,0,0,1-.11.81H37a1.51,1.51,0,0,0,1.56-.76c.19-.26.32-.44.52-.44a.6.6,0,0,1,.52.52.93.93,0,0,1-.26.6,2.78,2.78,0,0,1-2.49,1.09h-.31a2.64,2.64,0,0,1-2.27,1.22c-1.22,0-2-.52-2-1.43s.78-1.27,1.61-1.27a8.5,8.5,0,0,1,1.56.28,1.05,1.05,0,0,0,0-.31c0-1.79-1.09-2.52-2.18-3.2-.63,1-1.33,2-1.82,2.71-.37.54-.66,1-.94,1a.45.45,0,0,1-.44-.47c0-.34.15-.57.52-1.12C31.1,12.79,31.8,11.78,32.37,10.79Zm.75-3.12c-.28,0-.57.29-.57.78a1.39,1.39,0,0,0,.57,1,3.56,3.56,0,0,0,.45-1.22C33.57,7.85,33.41,7.67,33.12,7.67Zm2,8.22A8.27,8.27,0,0,0,34,15.6c-.31,0-.47.16-.47.36s.29.39.65.39A1.25,1.25,0,0,0,35.15,15.89Z"/><path class="cls-1" d="M39.78,13.47c0-2.68.6-5.15,1.3-5.15a1,1,0,0,1,1,1.07c0,.62-.78,1.61-.78,3.74s.76,3,1.54,3,1.9-1.14,2.39-1.82c.18-.26.31-.44.52-.44a.62.62,0,0,1,.52.52A1,1,0,0,1,46,15c-.65.91-1.87,2.52-3.2,2.52C41.05,17.55,39.78,16.15,39.78,13.47Zm3.48-8.76A1.43,1.43,0,0,1,41.83,6a1,1,0,0,1-1.06-1A1.32,1.32,0,0,1,42,3.51,1.2,1.2,0,0,1,43.26,4.71Z"/><path class="cls-1" d="M53.53,18.2c-.26,4.76-2.47,7.7-4.78,7.7-1.64,0-2.6-.91-2.6-2.08,0-2,3.56-4.19,6-6,0-4-.18-3.85-.18-3.85s-2,3.31-4,3.31a1.85,1.85,0,0,1-1.79-2.08c0-3.93,3.07-7,5.12-7a2.27,2.27,0,0,1,1.9.83s.47-.6.86-.6a.81.81,0,0,1,.73.73c0,.49-1.28,1.59-1.28,2.7,0,.55,0,2.63,0,4.89A17.65,17.65,0,0,0,56,14.35c.18-.26.31-.44.52-.44a.62.62,0,0,1,.52.52,1,1,0,0,1-.26.6A17,17,0,0,1,53.53,18.2Zm-1.4,1c-2.08,1.48-4.55,3.22-4.55,4.5,0,.6.49.93,1.22.93C50.31,24.67,51.82,22.7,52.13,19.24Zm-4.29-4.32c0,.52.15,1.07.54,1.07,1.17,0,3.83-3.87,3.83-4.91,0-.39-.34-.65-.34-1.25,0-.26,0-.44-.34-.44C50,9.39,47.84,12.38,47.84,14.92Z"/><path class="cls-1" d="M63.26,15.08c0-1.69.7-3.59.7-4.39,0-.39-.13-.52-.42-.52-1,0-3.72,3.74-4.31,5.3-.47,1.22-.68,1.72-1.25,1.72a.8.8,0,0,1-.86-.91c0-.55.34-5.67.34-6.58s.08-1.33.65-1.33,1,.57,1,1.59-.08,3.3-.08,3.35c.13-.23,2.76-4.76,5.2-4.76A1.44,1.44,0,0,1,65.75,10c0,1.61-.91,3.59-.91,5,0,.89.37,1.17,1.07,1.17.91,0,1.87-1.19,2.36-1.87.19-.26.32-.44.52-.44a.6.6,0,0,1,.52.52.93.93,0,0,1-.26.6c-.65.91-2,2.49-3.48,2.49A2.3,2.3,0,0,1,63.26,15.08Z"/></g></g></svg>